<svg width="37" height="37" viewBox="0 0 37 37" fill="none" xmlns="http://www.w3.org/2000/svg">
<path d="M18.2991 2.59814C9.87749 2.59814 3.04987 9.42577 3.04987 17.8474C3.04987 26.2691 9.87749 33.0967 18.2991 33.0967C26.7208 33.0967 33.5484 26.2691 33.5484 17.8474C33.5484 9.42577 26.7208 2.59814 18.2991 2.59814Z" fill="#29B6F6"/>
<path d="M25.8856 10.9851L23.0294 25.5678C23.0294 25.5678 22.9067 26.2344 22.0805 26.2344C21.6409 26.2344 21.4145 26.0253 21.4145 26.0253L15.2278 20.8918L12.2012 19.3663L8.31621 18.3328C8.31621 18.3328 7.62463 18.1332 7.62463 17.5614C7.62463 17.0848 8.33587 16.8579 8.33587 16.8579L24.5888 10.4014C24.5877 10.4002 25.085 10.2221 25.4472 10.2227C25.67 10.2227 25.9238 10.318 25.9238 10.6039C25.9238 10.7945 25.8856 10.9851 25.8856 10.9851Z" fill="white"/>
<path d="M17.5366 22.807L14.9246 25.3797C14.9246 25.3797 14.8108 25.4673 14.6589 25.4715C14.6065 25.4727 14.5499 25.4643 14.4921 25.4387L15.2272 20.8901L17.5366 22.807Z" fill="#B0BEC5"/>
<path d="M22.7953 13.4219C22.6666 13.254 22.4283 13.2236 22.2609 13.3511L12.1994 19.3721C12.1994 19.3721 13.8053 23.8647 14.0502 24.6421C14.2956 25.4206 14.4922 25.4391 14.4922 25.4391L15.2272 20.8911L22.7238 13.9557C22.8912 13.8282 22.9227 13.5893 22.7953 13.4219Z" fill="#CFD8DC"/>
</svg>
