<svg width="37" height="37" viewBox="0 0 37 37" fill="none" xmlns="http://www.w3.org/2000/svg">
<path d="M25.5053 22.0002C24.6579 21.2865 24.2669 21.0709 23.0972 20.3686C22.61 20.0764 21.8675 19.8242 21.4779 19.8242C21.2116 19.8242 20.893 20.0279 20.6979 20.223C20.1975 20.723 20.0337 21.3491 19.1569 21.3491C18.2991 21.3491 16.801 20.4761 15.7258 19.3476C14.5973 18.2724 13.7243 16.7743 13.7243 15.9165C13.7243 15.0397 14.3387 14.8643 14.8391 14.3633C15.0342 14.1688 15.2492 13.8501 15.2492 13.5842C15.2492 13.1946 14.997 12.4634 14.7048 11.9761C14.0025 10.8056 13.7874 10.4146 13.0732 9.56813C12.8314 9.28161 12.5562 9.15056 12.2679 9.14967C11.7809 9.14878 11.1412 9.39062 10.7081 9.71318C10.0567 10.199 9.37588 10.8599 9.1936 11.6834C9.16948 11.7954 9.15488 11.9082 9.15042 12.0211C9.11527 12.8789 9.45213 13.7495 9.81578 14.4869C10.6721 16.2245 11.805 17.9067 13.0381 19.4087C13.4324 19.8891 13.8616 20.3358 14.306 20.7674C14.7375 21.2112 15.1843 21.6404 15.6647 22.0353C17.1667 23.2683 18.8489 24.4013 20.5865 25.2576C21.3168 25.6174 22.1769 25.9483 23.0264 25.9239C23.1476 25.92 23.2688 25.9063 23.39 25.8798C24.2135 25.6981 24.8744 25.0167 25.3602 24.3653C25.6828 23.9322 25.9246 23.2934 25.9237 22.8055C25.9228 22.5172 25.7918 22.242 25.5053 22.0002ZM25.9237 18.2992C25.5029 18.2992 25.1613 17.9576 25.1613 17.5368V16.7743C25.1613 12.9909 22.0825 9.91213 18.2991 9.91213C17.8782 9.91213 17.5366 9.57051 17.5366 9.14967C17.5366 8.72883 17.8782 8.38721 18.2991 8.38721C22.9233 8.38721 26.6862 12.1501 26.6862 16.7743V17.5368C26.6862 17.9576 26.3446 18.2992 25.9237 18.2992ZM21.2405 16.7743C20.9022 16.7743 20.5924 16.5471 20.5034 16.2039C20.2946 15.4028 19.6691 14.7767 18.8709 14.5709C18.4629 14.4649 18.2184 14.0494 18.3235 13.6414C18.4286 13.2342 18.8435 12.9894 19.2531 13.0939C20.5856 13.4394 21.6304 14.483 21.9789 15.8188C22.0846 16.2269 21.8407 16.6424 21.4335 16.7493C21.3689 16.766 21.304 16.7743 21.2405 16.7743Z" fill="#7E57C2"/>
<path d="M23.6362 17.5367C23.2154 17.5367 22.8738 17.1951 22.8738 16.7743C22.8738 14.3436 20.9721 12.3383 18.5444 12.2102C18.1236 12.1882 17.801 11.829 17.8234 11.4087C17.8454 10.9879 18.2105 10.6647 18.6245 10.6877C21.8626 10.8583 24.3987 13.5323 24.3987 16.7743C24.3987 17.1951 24.0571 17.5367 23.6362 17.5367Z" fill="#7E57C2"/>
<path d="M18.2991 3.0498C14.868 3.0498 9.52152 3.36551 6.26437 6.34061C3.96179 8.63336 3.04981 11.8494 3.04981 16.0117C3.04981 16.3563 3.04832 16.7405 3.0513 17.1554C3.04832 17.5694 3.04981 17.9536 3.04981 18.2982C3.04981 22.4605 3.96179 25.6768 6.26437 27.9692C7.50426 29.1016 9.05034 29.8465 10.6744 30.3377V33.8343C10.6744 35.0512 11.4741 35.0733 11.6207 35.0733H11.6275C12.0043 35.0718 12.3298 34.8871 12.656 34.5976C12.779 34.4883 14.1964 32.9086 15.738 31.1808C16.6559 31.2395 17.5283 31.2609 18.2982 31.2609C21.7293 31.2609 27.0751 30.9446 30.3329 27.9692C32.6349 25.6774 33.5474 22.4605 33.5474 18.2982C33.5474 17.9536 33.5492 17.5694 33.546 17.1545C33.5492 16.7399 33.5474 16.3563 33.5474 16.0108C33.5474 11.8485 32.6358 8.63247 30.3329 6.33971C27.0757 3.36551 21.7302 3.0498 18.2991 3.0498ZM31.261 18.0331V18.2982C31.261 22.039 30.4642 24.5879 28.7555 26.3133C25.7956 28.9736 20.1573 28.9736 18.2982 28.9736C17.7326 28.9736 16.8147 28.9727 15.7311 28.8973C15.43 29.236 12.1994 32.849 12.1994 32.849V28.3788C10.5952 27.9937 9.01013 27.3626 7.84261 26.3142C6.13392 24.5879 5.3372 22.039 5.3372 18.2982V18.0331C5.3372 17.7653 5.33631 17.4764 5.33869 17.1387C5.33631 16.8337 5.33631 16.5454 5.3372 16.2771V16.0117C5.3372 12.2711 6.13392 9.72225 7.84261 7.99658C10.8019 5.3363 16.4409 5.3363 18.2991 5.3363C20.1573 5.3363 25.7956 5.3363 28.7547 7.99658C30.4642 9.72225 31.2601 12.2711 31.2601 16.0117V16.2771C31.2601 16.5445 31.261 16.8337 31.2586 17.1715C31.261 17.477 31.261 17.7653 31.261 18.0331Z" fill="#7E57C2"/>
</svg>
